<svg width="48" height="48" viewBox="0 0 48 48" fill="none" xmlns="http://www.w3.org/2000/svg">
<path d="M26.2929 6.95204L31.6269 9.16004C30.5697 10.5509 29.9969 12.2495 29.9959 13.9965C29.995 15.7435 30.5659 17.4428 31.6214 18.8348C32.677 20.2269 34.1592 21.2351 35.8417 21.7055C37.5242 22.1759 39.3144 22.0827 40.9389 21.44L41.0449 21.704C41.6538 23.1742 41.6538 24.8259 41.0449 26.296C40.0515 27.8694 39.3689 29.104 38.9969 30C38.6195 30.912 38.1795 32.3894 37.6769 34.432C37.0675 35.9019 35.8991 37.0695 34.4289 37.678C32.3329 38.2034 30.8555 38.644 29.9969 39C29.0475 39.3934 27.8129 40.076 26.2929 41.048C24.8228 41.6569 23.171 41.6569 21.7009 41.048C20.0969 40.0427 18.8622 39.36 17.9969 39C17.0542 38.6107 15.5769 38.1707 13.5649 37.68C12.095 37.0706 10.9274 35.9023 10.3189 34.432C9.78953 32.3294 9.34887 30.852 8.99687 30C8.59954 29.0427 7.91687 27.808 6.94887 26.296C6.33996 24.8259 6.33996 23.1742 6.94887 21.704C7.90754 20.216 8.5902 18.9814 8.99687 18C9.33954 17.1734 9.77953 15.696 10.3169 13.568C10.9263 12.0982 12.0946 10.9306 13.5649 10.322C15.6275 9.81004 17.1049 9.36938 17.9969 9.00004C18.9129 8.62004 20.1475 7.93738 21.7009 6.95204C23.171 6.34313 24.8228 6.34313 26.2929 6.95204Z" stroke="#E83F38" stroke-width="2" stroke-linecap="round" stroke-linejoin="round"/>
<path d="M16 26V26.02M24 34V34.02M24 24V24.02M32 28V28.02M22 16V16.02" stroke="#E83F38" stroke-width="3" stroke-linecap="round" stroke-linejoin="round"/>
</svg>
