<svg width="16" height="16" viewBox="0 0 16 16" fill="none" xmlns="http://www.w3.org/2000/svg">
<g clip-path="url(#clip0_1_11793)">
<path d="M8.77682 13.9794C7.83458 14.5387 6.73287 14.7684 5.64562 14.632C4.55837 14.4956 3.54752 14.0009 2.77266 13.2261C1.99779 12.4513 1.50305 11.4405 1.36655 10.3533C1.23004 9.26607 1.45954 8.16434 2.01882 7.22204M9.33215 6.66671L9.33333 9.00004M9.33215 6.66671L9.33333 4.33337M9.33215 6.66671H7M9.33333 6.66671H11.6667M9.33215 12C10.7466 12 12.1032 11.4381 13.1034 10.4379C14.1036 9.43775 14.6655 8.08119 14.6655 6.66671C14.6655 5.25222 14.1036 3.89567 13.1034 2.89547C12.1032 1.89528 10.7466 1.33337 9.33215 1.33337C7.91766 1.33337 6.56111 1.89528 5.56092 2.89547C4.56072 3.89567 3.99882 5.25222 3.99882 6.66671C3.99882 8.08119 4.56072 9.43775 5.56092 10.4379C6.56111 11.4381 7.91766 12 9.33215 12Z" stroke="#E83F38" stroke-linecap="round" stroke-linejoin="round"/>
</g>
<defs>
<clipPath id="clip0_1_11793">
<rect width="16" height="16" fill="white"/>
</clipPath>
</defs>
</svg>
