<svg width="16" height="16" viewBox="0 0 16 16" fill="none" xmlns="http://www.w3.org/2000/svg">
<path d="M9.66659 6C9.66659 6.44203 9.49099 6.86595 9.17843 7.17851C8.86587 7.49107 8.44195 7.66667 7.99992 7.66667C7.55789 7.66667 7.13397 7.49107 6.82141 7.17851C6.50885 6.86595 6.33325 6.44203 6.33325 6C6.33325 5.55797 6.50885 5.13405 6.82141 4.82149C7.13397 4.50893 7.55789 4.33334 7.99992 4.33334C8.44195 4.33334 8.86587 4.50893 9.17843 4.82149C9.49099 5.13405 9.66659 5.55797 9.66659 6Z" stroke="#262323" stroke-linecap="round" stroke-linejoin="round"/>
<path d="M12 13.3333C12 14.07 10.2093 14.6667 7.99999 14.6667C5.79066 14.6667 3.99999 14.07 3.99999 13.3333M8.83799 11.6627C8.61281 11.8793 8.31248 12.0003 7.99999 12.0003C7.68751 12.0003 7.38718 11.8793 7.16199 11.6627C5.10266 9.66734 2.34333 7.43867 3.68866 4.20267C4.41733 2.45267 6.16399 1.33334 7.99999 1.33334C9.83599 1.33334 11.5833 2.45334 12.3113 4.20267C13.6553 7.434 10.9027 9.674 8.83799 11.6627Z" stroke="#262323" stroke-linecap="round" stroke-linejoin="round"/>
</svg>
