<svg width="21" height="22" viewBox="0 0 21 22" fill="none" xmlns="http://www.w3.org/2000/svg">
<mask id="mask0_2101_3780" style="mask-type:alpha" maskUnits="userSpaceOnUse" x="0" y="0" width="21" height="22">
<rect width="21" height="22" fill="#D9D9D9"/>
</mask>
<g mask="url(#mask0_2101_3780)">
<path d="M10.4995 16.75L8.74951 13.25L2.62451 10.1875C2.54074 10.1491 2.46975 10.0875 2.41998 10.0099C2.37021 9.93237 2.34375 9.84215 2.34375 9.75C2.34375 9.65785 2.37021 9.56763 2.41998 9.49008C2.46975 9.41253 2.54074 9.35089 2.62451 9.3125L18.3745 3.625L15.8361 10.6548M16.6245 16.75V16.7588M18.4804 18.6059C18.8476 18.2388 19.0977 17.7711 19.199 17.2618C19.3004 16.7526 19.2484 16.2248 19.0498 15.7451C18.8511 15.2654 18.5147 14.8554 18.083 14.5669C17.6513 14.2784 17.1437 14.1244 16.6245 14.1244C16.1053 14.1244 15.5978 14.2784 15.1661 14.5669C14.7344 14.8554 14.3979 15.2654 14.1993 15.7451C14.0006 16.2248 13.9487 16.7526 14.05 17.2618C14.1514 17.7711 14.4014 18.2388 14.7686 18.6059C15.1344 18.9722 15.753 19.5203 16.6245 20.25C17.5444 19.4713 18.1631 18.9232 18.4804 18.6059Z" stroke="#BFBFBF" stroke-width="1.5" stroke-linecap="round" stroke-linejoin="round"/>
</g>
</svg>
