<svg width="12" height="12" viewBox="0 0 12 12" fill="none" xmlns="http://www.w3.org/2000/svg">
<g clip-path="url(#clip0_944_1434)">
<path fill-rule="evenodd" clip-rule="evenodd" d="M11.25 6C11.25 8.8995 8.8995 11.25 6 11.25C3.10051 11.25 0.75 8.8995 0.75 6C0.75 3.10051 3.10051 0.75 6 0.75C8.8995 0.75 11.25 3.10051 11.25 6ZM6.59069 2.85002C6.59069 2.52382 6.32626 2.25939 6.00006 2.25939C5.67387 2.25939 5.40944 2.52382 5.40944 2.85002V6.00002C5.40944 6.22373 5.53583 6.42824 5.73593 6.52829L7.83593 7.57829C8.12769 7.72417 8.48246 7.60591 8.62834 7.31415C8.77421 7.0224 8.65596 6.66762 8.3642 6.52175L6.59069 5.63499V2.85002Z" fill="#919191"/>
</g>
<defs>
<clipPath id="clip0_944_1434">
<rect width="12" height="12" fill="white"/>
</clipPath>
</defs>
</svg>
