<svg width="13" height="12" viewBox="0 0 13 12" fill="none" xmlns="http://www.w3.org/2000/svg">
<path fill-rule="evenodd" clip-rule="evenodd" d="M11.75 6C11.75 8.8995 9.3995 11.25 6.5 11.25C3.60051 11.25 1.25 8.8995 1.25 6C1.25 3.10051 3.60051 0.75 6.5 0.75C9.3995 0.75 11.75 3.10051 11.75 6ZM7.09069 2.85002C7.09069 2.52382 6.82626 2.25939 6.50006 2.25939C6.17387 2.25939 5.90944 2.52382 5.90944 2.85002V6.00002C5.90944 6.22373 6.03583 6.42824 6.23593 6.52829L8.33593 7.57829C8.62769 7.72417 8.98246 7.60591 9.12834 7.31415C9.27421 7.0224 9.15596 6.66762 8.8642 6.52175L7.09069 5.63499V2.85002Z" fill="white"/>
</svg>
