<svg width="13" height="13" viewBox="0 0 13 13" fill="none" xmlns="http://www.w3.org/2000/svg">
<path fill-rule="evenodd" clip-rule="evenodd" d="M0.014179 6.65559C0.0393481 6.77141 0.0843096 6.8465 0.174232 6.99668C0.917328 8.2377 3.12922 11.375 6.5 11.375C9.87078 11.375 12.0827 8.2377 12.8258 6.99668C12.9157 6.84651 12.9607 6.77141 12.9858 6.65559C13.0047 6.5686 13.0047 6.4314 12.9858 6.34441C12.9607 6.22859 12.9157 6.1535 12.8258 6.00333C12.0827 4.76231 9.87078 1.625 6.5 1.625C3.12921 1.625 0.917328 4.7623 0.174232 6.00332C0.0843095 6.1535 0.0393481 6.22859 0.014179 6.34441C-0.00472635 6.4314 -0.00472635 6.5686 0.014179 6.65559ZM5.17939 6.50009C5.17939 5.73083 5.77064 5.10723 6.49997 5.10723C7.22931 5.10723 7.82056 5.73083 7.82056 6.50009C7.82056 7.26934 7.22931 7.89294 6.49997 7.89294C5.77064 7.89294 5.17939 7.26934 5.17939 6.50009ZM6.49997 3.71437C5.0413 3.71437 3.85881 4.96158 3.85881 6.50009C3.85881 8.03859 5.0413 9.2858 6.49997 9.2858C7.95865 9.2858 9.14114 8.03859 9.14114 6.50009C9.14114 4.96158 7.95865 3.71437 6.49997 3.71437Z" fill="#919191"/>
</svg>
