<svg width="14" height="14" viewBox="0 0 14 14" fill="none" xmlns="http://www.w3.org/2000/svg">
<g clip-path="url(#clip0_942_10566)">
<path fill-rule="evenodd" clip-rule="evenodd" d="M0.514179 7.15559C0.539348 7.27141 0.58431 7.3465 0.674232 7.49668C1.41733 8.7377 3.62922 11.875 7 11.875C10.3708 11.875 12.5827 8.7377 13.3258 7.49668C13.4157 7.34651 13.4607 7.27141 13.4858 7.15559C13.5047 7.0686 13.5047 6.9314 13.4858 6.84441C13.4607 6.72859 13.4157 6.6535 13.3258 6.50333C12.5827 5.26231 10.3708 2.125 7 2.125C3.62921 2.125 1.41733 5.2623 0.674232 6.50332C0.58431 6.6535 0.539348 6.72859 0.514179 6.84441C0.495274 6.9314 0.495274 7.0686 0.514179 7.15559ZM5.67939 7.00009C5.67939 6.23083 6.27064 5.60723 6.99997 5.60723C7.72931 5.60723 8.32056 6.23083 8.32056 7.00009C8.32056 7.76934 7.72931 8.39294 6.99997 8.39294C6.27064 8.39294 5.67939 7.76934 5.67939 7.00009ZM6.99997 4.21437C5.5413 4.21437 4.35881 5.46158 4.35881 7.00009C4.35881 8.53859 5.5413 9.7858 6.99997 9.7858C8.45865 9.7858 9.64114 8.53859 9.64114 7.00009C9.64114 5.46158 8.45865 4.21437 6.99997 4.21437Z" fill="white"/>
</g>
<defs>
<clipPath id="clip0_942_10566">
<rect width="13" height="13" fill="white" transform="translate(0.5 0.5)"/>
</clipPath>
</defs>
</svg>
