<svg width="163" height="46" viewBox="0 0 163 46" fill="none" xmlns="http://www.w3.org/2000/svg">
<g style="mix-blend-mode:darken">
<mask id="mask0_3001_3557" style="mask-type:luminance" maskUnits="userSpaceOnUse" x="0" y="0" width="163" height="46">
<path d="M163 0H0V46H163V0Z" fill="white"/>
</mask>
<g mask="url(#mask0_3001_3557)">
<path d="M18.3852 30.1981L28.6465 33.9025L18.3852 38.0705V30.1981ZM10.8665 23.8834L14.7656 22.299V25.3044L10.8665 23.8834ZM18.3852 10.0914L27.3327 14.1226L18.3852 17.7815V10.0914ZM5.44282 2.65962V3.70827L14.7656 9.0655V19.248L3.44727 23.8606V24.7914L14.7656 28.8911V39.4915L5.58454 44.522V45.6163L34.8246 34.1533V32.5461L18.3852 26.6038V20.802L33.2964 14.7229V13.1841L5.44282 2.65962Z" fill="#262323"/>
<mask id="mask1_3001_3557" style="mask-type:luminance" maskUnits="userSpaceOnUse" x="46" y="14" width="114" height="20">
<path d="M159.553 14.4303H46.7061V33.8456H159.553V14.4303Z" fill="white"/>
</mask>
<g mask="url(#mask1_3001_3557)">
<path d="M125.739 14.4341C118.263 14.4341 115.271 18.9175 115.271 24.1417C115.271 29.366 118.263 33.8493 125.739 33.8493C133.216 33.8493 136.207 29.366 136.207 24.1417C136.207 18.9175 133.216 14.4341 125.739 14.4341ZM125.739 29.9777C120.277 29.9777 117.221 27.5271 117.221 24.1417C117.221 20.7564 120.277 18.3058 125.739 18.3058C131.201 18.3058 134.258 20.7564 134.258 24.1417C134.258 27.5271 131.201 29.9777 125.739 29.9777ZM159.553 14.8179V33.5226H155.389L145.603 19.4608H143.489V33.5226H141.083V14.8179H145.277L155.029 28.8797H157.144V14.8179H159.549H159.553ZM111.142 20.9464C111.142 16.8848 107.63 14.8825 102.463 14.8179H94.0747V33.5226H96.4801V26.9115H102.072L108.641 33.5226H111.763L105.064 26.847C108.836 26.1707 111.142 24.4267 111.142 20.9464ZM101.682 23.3325H96.4801V18.397H100.383C104.612 18.397 109.227 18.5261 109.227 20.8476C109.227 23.1691 104.742 23.3325 101.685 23.3325M61.3682 23.4616C62.7663 22.5916 63.1876 21.3643 63.2221 20.1409C63.2221 17.0444 61.238 14.8217 55.3548 14.8217H46.7061V33.5264H56.7183C61.7589 33.5264 64.4248 30.882 64.4248 28.0438C64.4248 26.0453 63.8732 24.4647 61.3682 23.4654M49.1114 18.3362H55.0943C58.7675 18.3362 61.3031 18.5945 61.3031 20.2055C61.3031 21.8165 58.9284 22.109 55.0943 22.109H49.1114V18.3362ZM55.2552 29.9131H49.1114V25.3652H54.7994C58.2121 25.3652 62.5058 25.3652 62.5058 27.6866C62.5058 29.8789 58.1815 29.9131 55.2552 29.9131ZM76.8118 14.8179L67.7073 33.5226H70.1778L72.0316 29.6206H85.3609L87.2147 33.5226H89.6853L80.5808 14.8179H76.808H76.8118ZM73.8548 25.8477L76.8769 19.4646H80.5195L83.5415 25.8477H73.8548Z" fill="#262323"/>
</g>
</g>
</g>
</svg>
