<svg width="44" height="45" viewBox="0 0 44 45" fill="none" xmlns="http://www.w3.org/2000/svg">
<g clip-path="url(#clip0_1013_6549)">
<g filter="url(#filter0_dddd_1013_6549)">
<path d="M40 20C40 29.2651 32.9999 36.8953 24 37.8901C23.3433 37.9627 22.676 43 22 43C21.324 43 20.6567 37.9627 20 37.8901C11.0001 36.8953 4 29.2651 4 20C4 10.0589 12.0589 2 22 2C31.9411 2 40 10.0589 40 20Z" fill="white"/>
</g>
<path d="M21.665 22.5394L26.2434 24.0916L21.665 25.8381V22.5394ZM18.3103 19.8933L20.05 19.2294V20.4888L18.3103 19.8933ZM21.665 14.1141L25.6572 15.8033L21.665 17.3365V14.1141ZM15.8904 11V11.4394L20.05 13.6842V17.951L15 19.8838V20.2738L20.05 21.9917V26.4336L15.9536 28.5415V29L29 24.1967V23.5233L21.665 21.0333V18.6022L28.3181 16.0548V15.41L15.8904 11Z" fill="#262323"/>
<circle cx="22" cy="20" r="15.5" stroke="#E83F38"/>
</g>
<defs>
<filter id="filter0_dddd_1013_6549" x="0" y="2" width="44" height="55" filterUnits="userSpaceOnUse" color-interpolation-filters="sRGB">
<feFlood flood-opacity="0" result="BackgroundImageFix"/>
<feColorMatrix in="SourceAlpha" type="matrix" values="0 0 0 0 0 0 0 0 0 0 0 0 0 0 0 0 0 0 127 0" result="hardAlpha"/>
<feOffset dy="1"/>
<feGaussianBlur stdDeviation="0.5"/>
<feColorMatrix type="matrix" values="0 0 0 0 0 0 0 0 0 0 0 0 0 0 0 0 0 0 0.07 0"/>
<feBlend mode="normal" in2="BackgroundImageFix" result="effect1_dropShadow_1013_6549"/>
<feColorMatrix in="SourceAlpha" type="matrix" values="0 0 0 0 0 0 0 0 0 0 0 0 0 0 0 0 0 0 127 0" result="hardAlpha"/>
<feOffset dy="2"/>
<feGaussianBlur stdDeviation="1"/>
<feColorMatrix type="matrix" values="0 0 0 0 0 0 0 0 0 0 0 0 0 0 0 0 0 0 0.06 0"/>
<feBlend mode="normal" in2="effect1_dropShadow_1013_6549" result="effect2_dropShadow_1013_6549"/>
<feColorMatrix in="SourceAlpha" type="matrix" values="0 0 0 0 0 0 0 0 0 0 0 0 0 0 0 0 0 0 127 0" result="hardAlpha"/>
<feOffset dy="6"/>
<feGaussianBlur stdDeviation="1.5"/>
<feColorMatrix type="matrix" values="0 0 0 0 0 0 0 0 0 0 0 0 0 0 0 0 0 0 0.04 0"/>
<feBlend mode="normal" in2="effect2_dropShadow_1013_6549" result="effect3_dropShadow_1013_6549"/>
<feColorMatrix in="SourceAlpha" type="matrix" values="0 0 0 0 0 0 0 0 0 0 0 0 0 0 0 0 0 0 127 0" result="hardAlpha"/>
<feOffset dy="10"/>
<feGaussianBlur stdDeviation="2"/>
<feColorMatrix type="matrix" values="0 0 0 0 0 0 0 0 0 0 0 0 0 0 0 0 0 0 0.01 0"/>
<feBlend mode="normal" in2="effect3_dropShadow_1013_6549" result="effect4_dropShadow_1013_6549"/>
<feBlend mode="normal" in="SourceGraphic" in2="effect4_dropShadow_1013_6549" result="shape"/>
</filter>
<clipPath id="clip0_1013_6549">
<rect width="44" height="45" fill="white"/>
</clipPath>
</defs>
</svg>
