<svg width="24" height="24" viewBox="0 0 24 24" fill="none" xmlns="http://www.w3.org/2000/svg">
<path d="M11.9997 2C10.1432 2 8.36269 2.7375 7.04994 4.05025C5.73718 5.36301 4.99969 7.14348 4.99969 9V12.528C4.99983 12.6831 4.96388 12.8362 4.89469 12.975L3.17769 16.408C3.09381 16.5757 3.05421 16.7621 3.06263 16.9494C3.07106 17.1368 3.12724 17.3188 3.22583 17.4783C3.32442 17.6379 3.46216 17.7695 3.62595 17.8608C3.78975 17.9521 3.97416 18 4.16169 18H19.8377C20.0252 18 20.2096 17.9521 20.3734 17.8608C20.5372 17.7695 20.6749 17.6379 20.7735 17.4783C20.8721 17.3188 20.9283 17.1368 20.9367 16.9494C20.9452 16.7621 20.9056 16.5757 20.8217 16.408L19.1057 12.975C19.0361 12.8362 18.9999 12.6832 18.9997 12.528V9C18.9997 7.14348 18.2622 5.36301 16.9494 4.05025C15.6367 2.7375 13.8562 2 11.9997 2Z" fill="#BFBFBF"/>
<path d="M9.29241 19.7929C9.10487 19.9804 8.99951 20.2348 8.99951 20.5C8.99951 20.7652 9.10487 21.0196 9.29241 21.2071C9.47994 21.3946 9.7343 21.5 9.99951 21.5H13.9995C14.2647 21.5 14.5191 21.3946 14.7066 21.2071C14.8942 21.0196 14.9995 20.7652 14.9995 20.5C14.9995 20.2348 14.8942 19.9804 14.7066 19.7929C14.5191 19.6054 14.2647 19.5 13.9995 19.5H9.99951C9.7343 19.5 9.47994 19.6054 9.29241 19.7929Z" fill="#BFBFBF"/>
</svg>
