<svg width="11" height="11" viewBox="0 0 11 11" fill="none" xmlns="http://www.w3.org/2000/svg">
<g clip-path="url(#clip0_1032_7709)">
<path d="M5.50131 10.0833C6.10331 10.0841 6.69952 9.96585 7.25569 9.73547C7.81187 9.50509 8.31704 9.16708 8.74218 8.74087C9.16839 8.31572 9.5064 7.81055 9.73678 7.25438C9.96717 6.69821 10.0854 6.10199 10.0846 5.49999C10.0854 4.89799 9.96717 4.30178 9.73678 3.74561C9.5064 3.18943 9.16839 2.68426 8.74218 2.25912C8.31704 1.83291 7.81187 1.4949 7.25569 1.26452C6.69952 1.03413 6.10331 0.915918 5.50131 0.91666C4.89931 0.915918 4.30309 1.03413 3.74692 1.26452C3.19074 1.4949 2.68557 1.83291 2.26043 2.25912C1.83422 2.68426 1.49621 3.18943 1.26583 3.74561C1.03545 4.30178 0.91723 4.89799 0.917972 5.49999C0.91723 6.10199 1.03545 6.69821 1.26583 7.25438C1.49621 7.81055 1.83422 8.31572 2.26043 8.74087C2.68557 9.16708 3.19074 9.50509 3.74692 9.73547C4.30309 9.96585 4.89931 10.0841 5.50131 10.0833Z" stroke="#3FAAC5" stroke-width="1.2" stroke-linejoin="round"/>
<path d="M4 6L5 7L7.5 4.5" stroke="#3FAAC5" stroke-width="1.2" stroke-linecap="round" stroke-linejoin="round"/>
</g>
<defs>
<clipPath id="clip0_1032_7709">
<rect width="11" height="11" fill="white"/>
</clipPath>
</defs>
</svg>
