<svg width="0" height="0">
	<symbol xmlns="http://www.w3.org/2000/svg" id="arrow1" viewBox="0 0 11 6">
		<path d="M1 1L5.5 5L10 1" stroke-width="1.5" stroke-linecap="round" stroke-linejoin="round"/>
	</symbol>

	<symbol xmlns="http://www.w3.org/2000/svg" id="arrow2" viewBox="0 0 6 9">
		<path d="M1.5 8L5 4.5L1.5 1" stroke-width="1.5" stroke-linecap="round" stroke-linejoin="round"/>
	</symbol>

	<symbol xmlns="http://www.w3.org/2000/svg" id="lupa" viewBox="0 0 14 14">
		<path d="M6.33333 11.6667C9.27885 11.6667 11.6667 9.27885 11.6667 6.33333C11.6667 3.38781 9.27885 1 6.33333 1C3.38781 1 1 3.38781 1 6.33333C1 9.27885 3.38781 11.6667 6.33333 11.6667Z" stroke-linecap="round" stroke-linejoin="round"/>
		<path d="M13 13L10.1333 10.1333" stroke-linecap="round" stroke-linejoin="round"/>
	</symbol>

	<symbol xmlns="http://www.w3.org/2000/svg" id="ic_soc1" viewBox="0 0 24 24">
		<path d="M12 8.75C11.138 8.75 10.3114 9.09241 9.7019 9.7019C9.09241 10.3114 8.75 11.138 8.75 12C8.75 12.862 9.09241 13.6886 9.7019 14.2981C10.3114 14.9076 11.138 15.25 12 15.25C12.862 15.25 13.6886 14.9076 14.2981 14.2981C14.9076 13.6886 15.25 12.862 15.25 12C15.25 11.138 14.9076 10.3114 14.2981 9.7019C13.6886 9.09241 12.862 8.75 12 8.75Z"/>
		<path fill-rule="evenodd" clip-rule="evenodd" d="M6.77012 3.08202C10.2462 2.69695 13.7541 2.69695 17.2301 3.08202C19.1291 3.29402 20.6601 4.78902 20.8831 6.69502C21.2951 10.2197 21.2951 13.7803 20.8831 17.305C20.6601 19.211 19.1291 20.706 17.2311 20.919C13.7548 21.3042 10.2465 21.3042 6.77012 20.919C4.87112 20.706 3.34012 19.211 3.11712 17.306C2.7051 13.781 2.7051 10.22 3.11712 6.69502C3.34012 4.78902 4.87112 3.29402 6.77012 3.08202ZM17.0001 6.00002C16.7349 6.00002 16.4805 6.10537 16.293 6.29291C16.1055 6.48045 16.0001 6.7348 16.0001 7.00002C16.0001 7.26523 16.1055 7.51959 16.293 7.70712C16.4805 7.89466 16.7349 8.00002 17.0001 8.00002C17.2653 8.00002 17.5197 7.89466 17.7072 7.70712C17.8948 7.51959 18.0001 7.26523 18.0001 7.00002C18.0001 6.7348 17.8948 6.48045 17.7072 6.29291C17.5197 6.10537 17.2653 6.00002 17.0001 6.00002ZM7.25012 12C7.25012 10.7402 7.75056 9.53206 8.64136 8.64126C9.53216 7.75046 10.7403 7.25002 12.0001 7.25002C13.2599 7.25002 14.4681 7.75046 15.3589 8.64126C16.2497 9.53206 16.7501 10.7402 16.7501 12C16.7501 13.2598 16.2497 14.468 15.3589 15.3588C14.4681 16.2496 13.2599 16.75 12.0001 16.75C10.7403 16.75 9.53216 16.2496 8.64136 15.3588C7.75056 14.468 7.25012 13.2598 7.25012 12Z"/>
	</symbol>

	<symbol xmlns="http://www.w3.org/2000/svg" id="ic_soc2" viewBox="0 0 24 24">
		<path d="M16.9888 2.63702V5.65144H15.2366C14.5967 5.65144 14.1651 5.78846 13.9419 6.0625C13.7187 6.33654 13.6071 6.7476 13.6071 7.29567V9.45373H16.8772L16.4419 12.8335H13.6071V21.5H10.1919V12.8335H7.34595V9.45373H10.1919V6.96454C10.1919 5.54868 10.5788 4.45062 11.3526 3.67037C12.1265 2.89012 13.157 2.5 14.4442 2.5C15.5379 2.5 16.3861 2.54567 16.9888 2.63702Z"/>
	</symbol>

	<symbol xmlns="http://www.w3.org/2000/svg" id="close1" viewBox="0 0 14 14">
		<path d="M10 4L4 10M4 4L10 10" stroke-linecap="round"/>
	</symbol>

	<symbol xmlns="http://www.w3.org/2000/svg" id="close2" viewBox="0 0 14 14">
		<path d="M1 1L7 7M13 13L7 7M7 7L13 1M7 7L1 13" stroke-width="1.5" stroke-linecap="round"/>
	</symbol>

	<symbol xmlns="http://www.w3.org/2000/svg" id="comment" viewBox="0 0 18 18">
		<path d="M5.25 9H4.9545C4.6582 8.99993 4.36852 9.08762 4.122 9.252L2.25 10.5V3.75C2.25 3.35218 2.40804 2.97064 2.68934 2.68934C2.97064 2.40804 3.35218 2.25 3.75 2.25H9C9.39782 2.25 9.77936 2.40804 10.0607 2.68934C10.342 2.97064 10.5 3.35218 10.5 3.75V5.25M9 7.5H14.25C14.6478 7.5 15.0294 7.65804 15.3107 7.93934C15.592 8.22064 15.75 8.60218 15.75 9V15.75L13.878 14.502C13.6315 14.3376 13.3418 14.2499 13.0455 14.25H9C8.60218 14.25 8.22064 14.092 7.93934 13.8107C7.65804 13.5294 7.5 13.1478 7.5 12.75V9C7.5 8.60218 7.65804 8.22064 7.93934 7.93934C8.22064 7.65804 8.60218 7.5 9 7.5Z" stroke-width="1.2" stroke-linecap="round" stroke-linejoin="round"/>
	</symbol>

	<symbol xmlns="http://www.w3.org/2000/svg" id="like" viewBox="0 0 18 18">
		<path d="M3.496 7.42822H5.847V13.6882H3.497C3.43178 13.6884 3.36717 13.6756 3.30688 13.6508C3.24659 13.6259 3.19179 13.5894 3.14563 13.5433C3.09946 13.4972 3.06284 13.4425 3.03785 13.3823C3.01286 13.322 3 13.2574 3 13.1922V7.92422C3 7.79268 3.05226 7.66652 3.14527 7.5735C3.23829 7.48048 3.36445 7.42822 3.496 7.42822Z" stroke-width="1.2" stroke-linecap="round" stroke-linejoin="round"/>
		<path d="M5.85766 13.7173L6.57266 14.0743C6.84966 14.2123 7.15466 14.2833 7.46466 14.2823H13.9737C14.2494 14.2821 14.5155 14.1812 14.722 13.9985C14.9284 13.8158 15.061 13.5639 15.0947 13.2903L15.8877 8.17127C15.9118 8.01201 15.9018 7.84944 15.8585 7.69429C15.8152 7.53914 15.7396 7.39493 15.6365 7.27115C15.5334 7.14738 15.4053 7.04685 15.2605 6.9762C15.1157 6.90555 14.9577 6.86638 14.7967 6.86127H10.4407V3.97427C10.4394 3.82723 10.4087 3.68194 10.3503 3.54697C10.292 3.412 10.2072 3.29011 10.1009 3.18849C9.9946 3.08687 9.86903 3.00759 9.73158 2.95534C9.59413 2.90309 9.4476 2.87892 9.30066 2.88427C9.11379 2.88221 8.92958 2.92867 8.76604 3.01912C8.60251 3.10956 8.46524 3.24089 8.36766 3.40027L5.84766 7.42827V13.6883" stroke-width="1.2" stroke-linecap="round" stroke-linejoin="round"/>
	</symbol>

	<symbol xmlns="http://www.w3.org/2000/svg" id="dislike" viewBox="0 0 18 18">
		<path d="M3.05734 10.5017H5.38433V4.30564H3.05833C2.99378 4.30551 2.92983 4.31811 2.87015 4.34273C2.81048 4.36734 2.75624 4.40348 2.71055 4.44908C2.66486 4.49468 2.6286 4.54884 2.60387 4.60847C2.57914 4.6681 2.56641 4.73202 2.56641 4.79657V10.0108C2.56641 10.141 2.61813 10.2658 2.7102 10.3579C2.80227 10.45 2.92714 10.5017 3.05734 10.5017Z" stroke-width="1.2" stroke-linecap="round" stroke-linejoin="round"/>
		<path d="M5.39466 4.27691L6.10236 3.92356C6.37653 3.78697 6.67842 3.71669 6.98525 3.71768H13.4278C13.7007 3.71781 13.9641 3.8177 14.1684 3.99855C14.3728 4.17939 14.504 4.42871 14.5373 4.69955L15.3222 9.76627C15.3461 9.92391 15.3363 10.0848 15.2934 10.2384C15.2506 10.3919 15.1757 10.5347 15.0736 10.6572C14.9716 10.7797 14.8448 10.8792 14.7015 10.9491C14.5582 11.0191 14.4017 11.0578 14.2424 11.0629H9.93086V13.9204C9.92963 14.0659 9.89924 14.2098 9.84147 14.3434C9.78371 14.4769 9.69975 14.5976 9.59455 14.6982C9.48936 14.7988 9.36507 14.8772 9.22902 14.9289C9.09298 14.9807 8.94795 15.0046 8.8025 14.9993C8.61754 15.0013 8.43521 14.9553 8.27335 14.8658C8.11148 14.7763 7.97562 14.6463 7.87903 14.4885L5.38477 10.5017V4.30561" stroke-width="1.2" stroke-linecap="round" stroke-linejoin="round"/>
	</symbol>

	<symbol xmlns="http://www.w3.org/2000/svg" id="share" viewBox="0 0 18 16">
		<path d="M0.724552 14.1413C1.75793 10.1992 3.85393 7.41375 6.91269 5.91983C7.83848 5.48117 8.9171 5.13058 10.0426 4.92292L10.1259 4.91008C10.3808 4.91008 10.3819 4.90192 10.3819 2.95475V1L16.697 7.67683L10.3819 14.3537V10.4442H9.61393C7.60008 10.4903 5.62045 11.0041 3.81531 11.9492L3.89531 11.9113C2.91714 12.5104 2.0304 13.2627 1.26524 14.1425L1.25807 14.1513L0.5 14.9994L0.724552 14.1413Z"/>
	</symbol>

	<symbol xmlns="http://www.w3.org/2000/svg" id="cart" viewBox="0 0 19 19">
		<path d="M3.2825 4.55H14.693C15.7265 4.55 16.4728 5.5025 16.1893 6.461L14.9487 10.661C14.7575 11.306 14.147 11.75 13.4525 11.75H6.584C5.88875 11.75 5.2775 11.3053 5.087 10.661L3.2825 4.55ZM3.2825 4.55L2.75 2.75M12.875 16.25C13.1734 16.25 13.4595 16.1315 13.6705 15.9205C13.8815 15.7095 14 15.4234 14 15.125C14 14.8266 13.8815 14.5405 13.6705 14.3295C13.4595 14.1185 13.1734 14 12.875 14C12.5766 14 12.2905 14.1185 12.0795 14.3295C11.8685 14.5405 11.75 14.8266 11.75 15.125C11.75 15.4234 11.8685 15.7095 12.0795 15.9205C12.2905 16.1315 12.5766 16.25 12.875 16.25ZM6.875 16.25C7.17337 16.25 7.45952 16.1315 7.6705 15.9205C7.88147 15.7095 8 15.4234 8 15.125C8 14.8266 7.88147 14.5405 7.6705 14.3295C7.45952 14.1185 7.17337 14 6.875 14C6.57663 14 6.29048 14.1185 6.0795 14.3295C5.86853 14.5405 5.75 14.8266 5.75 15.125C5.75 15.4234 5.86853 15.7095 6.0795 15.9205C6.29048 16.1315 6.57663 16.25 6.875 16.25Z" stroke-linecap="round" stroke-linejoin="round"/>
	</symbol>

	<symbol xmlns="http://www.w3.org/2000/svg" id="imp" viewBox="0 0 14 14">
		<path d="M7.0013 12.8334C10.223 12.8334 12.8346 10.2217 12.8346 7.00008C12.8346 3.77842 10.223 1.16675 7.0013 1.16675C3.77964 1.16675 1.16797 3.77842 1.16797 7.00008C1.16797 10.2217 3.77964 12.8334 7.0013 12.8334Z" fill="none" stroke-width="1.5"/>
		<path d="M7 9.91675V6.41675" fill="none" stroke-width="1.5" stroke-linecap="round"/>
		<path d="M7 3.5C7.41421 3.5 7.75 3.83579 7.75 4.25C7.75 4.66421 7.41421 5 7 5C6.58579 5 6.25 4.66421 6.25 4.25C6.25 3.83579 6.58579 3.5 7 3.5Z" stroke="none"/>
	</symbol>

	<symbol xmlns="http://www.w3.org/2000/svg" id="eye" viewBox="0 0 18 18">
		<path d="M11.25 9C11.25 9.59674 11.0129 10.169 10.591 10.591C10.169 11.0129 9.59674 11.25 9 11.25C8.40326 11.25 7.83097 11.0129 7.40901 10.591C6.98705 10.169 6.75 9.59674 6.75 9C6.75 8.40326 6.98705 7.83097 7.40901 7.40901C7.83097 6.98705 8.40326 6.75 9 6.75C9.59674 6.75 10.169 6.98705 10.591 7.40901C11.0129 7.83097 11.25 8.40326 11.25 9Z" stroke-linecap="round" stroke-linejoin="round"/>
		<path d="M1.5 9C2.7 5.92725 5.502 3.75 9 3.75C12.498 3.75 15.3 5.92725 16.5 9C15.3 12.0728 12.498 14.25 9 14.25C5.502 14.25 2.7 12.0728 1.5 9Z" stroke-linecap="round" stroke-linejoin="round"/>
	</symbol>

	<symbol xmlns="http://www.w3.org/2000/svg" id="eye_off" viewBox="0 0 18 18">
		<path d="M8.0475 3.80475C8.36368 3.76814 8.68171 3.74986 9 3.75C12.498 3.75 15.3 5.92725 16.5 9C16.2095 9.74742 15.817 10.4511 15.3337 11.091M4.89 4.88925C3.36 5.823 2.175 7.26975 1.5 9C2.7 12.0728 5.502 14.25 9 14.25C10.4491 14.2576 11.8719 13.863 13.11 13.11M7.41 7.41C7.20105 7.61895 7.0353 7.86701 6.92222 8.14002C6.80914 8.41302 6.75093 8.70563 6.75093 9.00113C6.75093 9.29663 6.80914 9.58923 6.92222 9.86224C7.0353 10.1352 7.20105 10.3833 7.41 10.5923C7.61895 10.8012 7.86701 10.9669 8.14001 11.08C8.41302 11.1931 8.70563 11.2513 9.00113 11.2513C9.29662 11.2513 9.58923 11.1931 9.86224 11.08C10.1352 10.9669 10.3833 10.8012 10.5923 10.5923" stroke-linecap="round" stroke-linejoin="round"/>
		<path d="M3 3L15 15" stroke-linecap="round"/>
	</symbol>

	<symbol xmlns="http://www.w3.org/2000/svg" id="add" viewBox="0 0 14 15">
		<path d="M7 1V7.5M7 14V7.5M7 7.5H13.5M7 7.5H0.5" stroke-linecap="round" stroke-linejoin="round"/>
	</symbol>

	<symbol xmlns="http://www.w3.org/2000/svg" id="edit" viewBox="0 0 18 18">
		<path d="M2.625 15.75H16.125" stroke-linecap="round" stroke-linejoin="round"/>
		<path d="M4.125 10.02V12.75H6.86887L14.625 4.9905L11.8856 2.25L4.125 10.02Z" stroke-linejoin="round"/>
	</symbol>
</svg>