<svg width="24" height="24" viewBox="0 0 24 24" fill="none" xmlns="http://www.w3.org/2000/svg">
<path d="M11.2736 1.57493C11.5048 1.07359 11.6204 0.822915 11.7801 0.744724C11.9188 0.676766 12.0812 0.676766 12.2199 0.744724C12.3796 0.822915 12.4952 1.07359 12.7264 1.57493L15.4802 7.5451C15.5487 7.69346 15.5829 7.76764 15.6348 7.8247C15.6807 7.8752 15.7366 7.91575 15.7988 7.94385C15.8691 7.9756 15.9502 7.98522 16.1125 8.00446L22.6414 8.77857C23.1897 8.84357 23.4638 8.87608 23.5875 9.00374C23.695 9.1147 23.7452 9.26912 23.7234 9.42208C23.6984 9.59807 23.4957 9.7855 23.0904 10.1603L18.2634 14.6242C18.1434 14.7352 18.0834 14.7906 18.0452 14.8576C18.0114 14.917 17.9901 14.9826 17.9826 15.0504C17.9741 15.1271 17.99 15.2072 18.0219 15.3675L19.3032 21.8161C19.4108 22.3576 19.4646 22.6284 19.3814 22.7855C19.3091 22.922 19.1777 23.0174 19.0255 23.044C18.8504 23.0746 18.6095 22.9397 18.1278 22.6701L12.3908 19.4587C12.2482 19.3789 12.1769 19.339 12.1014 19.3234C12.0345 19.3095 11.9655 19.3095 11.8986 19.3234C11.8231 19.339 11.7518 19.3789 11.6092 19.4587L5.87222 22.6701C5.39045 22.9397 5.14957 23.0746 4.97446 23.044C4.82227 23.0174 4.6909 22.922 4.6186 22.7855C4.53541 22.6284 4.58921 22.3576 4.69681 21.8161L5.97814 15.3675C6.00998 15.2072 6.0259 15.1271 6.01743 15.0504C6.00993 14.9826 5.98861 14.917 5.95479 14.8576C5.91657 14.7906 5.85659 14.7352 5.73664 14.6242L0.909631 10.1603C0.504283 9.7855 0.301609 9.59807 0.276577 9.42208C0.254821 9.26912 0.304996 9.1147 0.412503 9.00374C0.536199 8.87608 0.810332 8.84357 1.3586 8.77857L7.88753 8.00446C8.04978 7.98522 8.1309 7.9756 8.20121 7.94385C8.26344 7.91575 8.31925 7.8752 8.36521 7.8247C8.41713 7.76764 8.45135 7.69346 8.51978 7.5451L11.2736 1.57493Z" fill="#FFB526"/>
</svg>
