<svg width="16" height="15" viewBox="0 0 16 15" fill="none" xmlns="http://www.w3.org/2000/svg">
<path d="M6.54711 2.14999C7.0096 1.1473 7.24085 0.645952 7.56013 0.489569C7.83763 0.353654 8.16237 0.353654 8.43987 0.489569C8.75915 0.645952 8.9904 1.1473 9.45289 2.14999L10.1641 3.6919C10.301 3.98863 10.3694 4.13699 10.4733 4.2511C10.5652 4.3521 10.6768 4.4332 10.8012 4.4894C10.9419 4.55291 11.1041 4.57215 11.4286 4.61062L13.1148 4.81055C14.2114 4.94056 14.7596 5.00557 15.007 5.2609C15.222 5.48281 15.3224 5.79166 15.2789 6.09757C15.2288 6.44955 14.8235 6.8244 14.0128 7.57411L12.7661 8.727C12.5262 8.94886 12.4062 9.05979 12.3298 9.19382C12.2622 9.31244 12.2195 9.44367 12.2045 9.57939C12.1876 9.73276 12.2194 9.89301 12.2831 10.2135L12.614 11.879C12.8292 12.962 12.9368 13.5036 12.7705 13.8177C12.6258 14.0908 12.3631 14.2817 12.0587 14.3348C11.7085 14.396 11.2267 14.1263 10.2632 13.587L8.78151 12.7576C8.49637 12.598 8.3538 12.5182 8.20271 12.4869C8.06899 12.4592 7.93101 12.4592 7.79729 12.4869C7.6462 12.5182 7.50363 12.598 7.21849 12.7576L5.73679 13.587C4.77326 14.1263 4.29149 14.396 3.94127 14.3348C3.63688 14.2817 3.37416 14.0908 3.22955 13.8177C3.06316 13.5036 3.17076 12.962 3.38596 11.879L3.71689 10.2135C3.78057 9.89301 3.81242 9.73276 3.79547 9.57939C3.78048 9.44367 3.73784 9.31244 3.67019 9.19382C3.59376 9.05979 3.4738 8.94886 3.23389 8.727L1.98722 7.57411C1.17653 6.82441 0.771179 6.44955 0.721114 6.09757C0.677602 5.79166 0.777953 5.48281 0.992966 5.2609C1.24036 5.00557 1.78863 4.94056 2.88516 4.81055L4.57139 4.61062C4.89588 4.57215 5.05813 4.55291 5.19875 4.4894C5.3232 4.4332 5.43483 4.3521 5.52674 4.2511C5.63059 4.13699 5.69903 3.98863 5.83589 3.6919L6.54711 2.14999Z" fill="#FFB526"/>
</svg>
